<svg viewBox="0 0 500 500" xmlns="http://www.w3.org/2000/svg" xmlns:xlink="http://www.w3.org/1999/xlink">
  <defs>
    <path id="path-0" d="M 155.102 217.347 L 200 218.878 C 226.827 218.503 297.268 224.025 338.265 213.776" style="fill: none;"></path>
    <path id="path-1" d="M 152.041 287.245 C 139.911 266.518 134.014 254.423 128.571 240.816 C 123.738 230.55 122.858 218.476 121.939 210.204 C 120.272 199.317 120.918 191.496 120.918 183.163 C 121.429 175.729 125 171.181 125 166.837 C 125.51 164.597 128.608 162.171 129.592 160.204 C 132.499 157.297 134.292 154.484 136.735 152.041 C 140.344 148.431 144.073 147.253 146.429 144.898 C 149.955 143.135 151.777 140.816 154.592 140.816 C 160.761 139.276 167.282 137.564 172.449 139.286 C 177.599 142.889 181.207 146.485 185.714 149.49 C 190.828 151.195 200.625 154.196 203.061 156.633 C 207.721 158.526 212.817 160.415 216.327 162.755 C 220.192 163.265 223.559 166.327 227.551 166.327 C 235.605 166.327 241.793 164.796 245.408 164.796 C 248.769 162.53 257.125 154.082 259.184 154.082 C 264.866 148.91 269.404 146.923 272.959 143.367 C 278.402 138.945 284.391 136.631 289.286 134.184 C 295.479 131.342 301.396 128.571 306.633 128.571 C 318.027 128.571 326.871 128.571 335.714 128.571 C 345.532 128.571 350.788 132.916 357.653 135.204 C 362.686 137.976 366.186 140.166 368.878 142.857 C 371.871 145.341 375.148 147.234 376.531 150 C 380.181 153.651 381.723 157.834 383.673 161.735 C 384.184 166.389 386.224 169.952 386.224 173.98 C 386.224 179.762 386.224 184.524 386.224 189.286 C 385.714 195.866 385.171 203.638 383.163 207.653 C 378.758 216.463 374.735 222.014 369.898 228.061 C 358.867 236.358 350.806 246.047 340.816 252.041 C 333.936 257.434 328.536 262.782 322.449 267.347 C 318.846 271.46 315.191 275.058 311.224 277.041 C 305.644 281.102 302.255 286.373 297.449 288.776 C 294.841 289.796 288.378 296.315 286.735 297.959 C 282.474 302.22 279.359 305.335 276.02 308.673 C 271.663 311.617 266.042 317.122 262.755 320.408 C 258.97 324.704 256.74 328.464 253.571 331.633 C 251.768 333.573 249.748 337.755 247.959 337.755 C 247.092 339.133 245.317 342.347 244.898 342.347 C 244.388 344.1 241.662 346.603 240.306 347.959 C 237.712 351.064 235.936 353.349 234.184 355.102 C 228.209 355.612 219.685 351.729 213.265 347.449 C 208.062 342.246 202.596 337.012 197.959 334.694 C 191.374 331.401 185.435 327.968 179.592 326.02 C 176.285 322.713 173.248 320.697 170.408 317.857 C 167.479 314.928 166.378 313.317 163.776 310.714 C 162.807 308.726 159.184 304.088 159.184 303.571 C 159.184 302.895 156.497 298.98 156.122 298.98 C 155.612 297.581 152.341 294.688 151.02 293.367 C 150.025 292.857 148.783 289.286 147.959 289.286 L 147.959 288.776 C 147.075 286.713 142.887 276.02 141.837 276.02" style="fill: none;"></path>
    <path id="path-2" d="M 53.571 447.449 C 65.427 441.266 73.007 437.245 80.102 437.245 C 93.009 432.943 108.586 435.204 120.408 435.204 C 128.179 435.204 138.711 435.172 143.878 437.755 C 151.64 438.265 159.252 439.303 165.306 440.816 C 175.198 442.125 182.944 443.263 190.816 444.388 C 201.054 444.388 208.596 445.408 216.327 445.408 C 226.388 445.408 234.481 444.388 242.347 444.388 C 249.483 442.986 257.512 441.327 263.265 441.327 C 265.354 440.258 275.737 435.714 277.041 435.714 C 283.082 433.871 287.285 432.888 290.816 431.122 C 294.549 431.122 297.56 430.102 300.51 430.102 C 307.117 429.592 314.641 430.834 319.898 429.082 C 332.152 429.082 341.487 429.533 351.02 431.122 C 359.153 432.773 365.81 433.876 372.449 435.204 C 379.848 436.786 384.747 439.796 389.796 439.796 C 393.436 441.349 398.805 442.347 402.041 442.347 C 407.737 442.347 412.646 443.878 417.857 443.878 C 422.982 443.878 426.824 444.898 431.122 444.898 C 438.312 446.614 445.584 445.408 451.02 445.408 C 454.534 445.408 457.481 444.388 460.204 444.388 C 462.845 443.878 464.796 442.393 464.796 440.816 C 466.583 437.752 468.66 435.932 470.408 434.184 C 470.918 431.26 475.825 431.828 477.041 430.612 C 479.77 430.102 483.406 427.309 485.204 425.51 L 485.714 425.51 C 486.941 424.283 488.737 422.959 490.306 422.959" style="fill: none;"></path>
  </defs>
  <text style="fill: rgb(51, 51, 51); font-family: Arial, sans-serif; font-size: 28px; white-space: pre;"><textPath xlink:href="#path-0">Health Buddy</textPath></text>
  <text style="fill: rgb(51, 51, 51); font-family: Arial, sans-serif; font-size: 28px; white-space: pre;"><textPath xlink:href="#path-1">Health Buddy Health Buddy Health Buddy Health Buddy Health </textPath></text>
  <text style="fill: rgb(51, 51, 51); font-family: Arial, sans-serif; font-size: 28px; white-space: pre;"><textPath xlink:href="#path-2">Health Buddy Health Buddy Health </textPath></text>
</svg>